<mxfile host="app.diagrams.net" modified="2023-11-21T06:38:26.636Z" agent="Mozilla/5.0 (Macintosh; Intel Mac OS X 10_15_7) AppleWebKit/537.36 (KHTML, like Gecko) Chrome/119.0.0.0 Safari/537.36" etag="NUp-3z23X7b4tJZB9i8W" version="22.1.3" type="device" pages="2">
  <diagram name="CI构建流程" id="YXr0bdSdqr7X8KRl8uHr">
    <mxGraphModel dx="1434" dy="797" grid="1" gridSize="10" guides="1" tooltips="1" connect="1" arrows="1" fold="1" page="1" pageScale="1" pageWidth="827" pageHeight="1169" math="0" shadow="0">
      <root>
        <mxCell id="0" />
        <mxCell id="1" parent="0" />
        <mxCell id="9vGy-V_rpe-NXs04i1K--5" style="edgeStyle=orthogonalEdgeStyle;rounded=0;orthogonalLoop=1;jettySize=auto;html=1;entryX=0;entryY=0.5;entryDx=0;entryDy=0;strokeWidth=2;" parent="1" source="9vGy-V_rpe-NXs04i1K--1" target="9vGy-V_rpe-NXs04i1K--2" edge="1">
          <mxGeometry relative="1" as="geometry" />
        </mxCell>
        <mxCell id="9vGy-V_rpe-NXs04i1K--9" value="" style="edgeStyle=orthogonalEdgeStyle;rounded=0;orthogonalLoop=1;jettySize=auto;html=1;strokeWidth=2;" parent="1" source="9vGy-V_rpe-NXs04i1K--1" target="9vGy-V_rpe-NXs04i1K--8" edge="1">
          <mxGeometry relative="1" as="geometry" />
        </mxCell>
        <mxCell id="9vGy-V_rpe-NXs04i1K--1" value="前置" style="rounded=1;whiteSpace=wrap;html=1;strokeWidth=2;arcSize=3;fillColor=#dae8fc;strokeColor=#6c8ebf;" parent="1" vertex="1">
          <mxGeometry x="90" y="310" width="100" height="30" as="geometry" />
        </mxCell>
        <mxCell id="9vGy-V_rpe-NXs04i1K--6" value="" style="edgeStyle=orthogonalEdgeStyle;rounded=0;orthogonalLoop=1;jettySize=auto;html=1;strokeWidth=2;" parent="1" source="9vGy-V_rpe-NXs04i1K--2" target="9vGy-V_rpe-NXs04i1K--3" edge="1">
          <mxGeometry relative="1" as="geometry" />
        </mxCell>
        <mxCell id="9vGy-V_rpe-NXs04i1K--11" value="" style="edgeStyle=orthogonalEdgeStyle;rounded=0;orthogonalLoop=1;jettySize=auto;html=1;strokeWidth=2;" parent="1" source="9vGy-V_rpe-NXs04i1K--2" target="9vGy-V_rpe-NXs04i1K--10" edge="1">
          <mxGeometry relative="1" as="geometry" />
        </mxCell>
        <mxCell id="9vGy-V_rpe-NXs04i1K--2" value="依赖下载" style="rounded=1;whiteSpace=wrap;html=1;strokeWidth=2;arcSize=3;fillColor=#d5e8d4;strokeColor=#82b366;" parent="1" vertex="1">
          <mxGeometry x="290" y="310" width="100" height="30" as="geometry" />
        </mxCell>
        <mxCell id="9vGy-V_rpe-NXs04i1K--7" value="" style="edgeStyle=orthogonalEdgeStyle;rounded=0;orthogonalLoop=1;jettySize=auto;html=1;strokeWidth=2;" parent="1" source="9vGy-V_rpe-NXs04i1K--3" target="9vGy-V_rpe-NXs04i1K--4" edge="1">
          <mxGeometry relative="1" as="geometry" />
        </mxCell>
        <mxCell id="9vGy-V_rpe-NXs04i1K--13" value="" style="edgeStyle=orthogonalEdgeStyle;rounded=0;orthogonalLoop=1;jettySize=auto;html=1;strokeWidth=2;" parent="1" source="9vGy-V_rpe-NXs04i1K--3" target="9vGy-V_rpe-NXs04i1K--12" edge="1">
          <mxGeometry relative="1" as="geometry" />
        </mxCell>
        <mxCell id="9vGy-V_rpe-NXs04i1K--3" value="构建" style="rounded=1;whiteSpace=wrap;html=1;strokeWidth=2;arcSize=3;fillColor=#ffe6cc;strokeColor=#d79b00;" parent="1" vertex="1">
          <mxGeometry x="490" y="310" width="100" height="30" as="geometry" />
        </mxCell>
        <mxCell id="9vGy-V_rpe-NXs04i1K--21" value="" style="edgeStyle=orthogonalEdgeStyle;rounded=0;orthogonalLoop=1;jettySize=auto;html=1;strokeWidth=2;" parent="1" source="9vGy-V_rpe-NXs04i1K--4" target="9vGy-V_rpe-NXs04i1K--20" edge="1">
          <mxGeometry relative="1" as="geometry" />
        </mxCell>
        <mxCell id="9vGy-V_rpe-NXs04i1K--4" value="通知" style="rounded=1;whiteSpace=wrap;html=1;strokeWidth=2;arcSize=3;fillColor=#fff2cc;strokeColor=#d6b656;" parent="1" vertex="1">
          <mxGeometry x="690" y="310" width="100" height="30" as="geometry" />
        </mxCell>
        <mxCell id="9vGy-V_rpe-NXs04i1K--8" value="生成版本号" style="rounded=1;whiteSpace=wrap;html=1;strokeWidth=2;arcSize=3;fillColor=#dae8fc;strokeColor=#6c8ebf;" parent="1" vertex="1">
          <mxGeometry x="90" y="370" width="100" height="30" as="geometry" />
        </mxCell>
        <mxCell id="9vGy-V_rpe-NXs04i1K--10" value="从配置中心下载应用配置" style="rounded=1;whiteSpace=wrap;html=1;strokeWidth=2;arcSize=3;fillColor=#d5e8d4;strokeColor=#82b366;" parent="1" vertex="1">
          <mxGeometry x="290" y="370" width="100" height="30" as="geometry" />
        </mxCell>
        <mxCell id="9vGy-V_rpe-NXs04i1K--15" value="" style="edgeStyle=orthogonalEdgeStyle;rounded=0;orthogonalLoop=1;jettySize=auto;html=1;strokeWidth=2;" parent="1" source="9vGy-V_rpe-NXs04i1K--12" target="9vGy-V_rpe-NXs04i1K--14" edge="1">
          <mxGeometry relative="1" as="geometry" />
        </mxCell>
        <mxCell id="9vGy-V_rpe-NXs04i1K--12" value="生成镜像名称" style="rounded=1;whiteSpace=wrap;html=1;strokeWidth=2;arcSize=3;fillColor=#ffe6cc;strokeColor=#d79b00;" parent="1" vertex="1">
          <mxGeometry x="490" y="370" width="100" height="30" as="geometry" />
        </mxCell>
        <mxCell id="9vGy-V_rpe-NXs04i1K--17" value="" style="edgeStyle=orthogonalEdgeStyle;rounded=0;orthogonalLoop=1;jettySize=auto;html=1;strokeWidth=2;" parent="1" source="9vGy-V_rpe-NXs04i1K--14" target="9vGy-V_rpe-NXs04i1K--16" edge="1">
          <mxGeometry relative="1" as="geometry" />
        </mxCell>
        <mxCell id="9vGy-V_rpe-NXs04i1K--14" value="登录 docker 仓库" style="rounded=1;whiteSpace=wrap;html=1;strokeWidth=2;arcSize=3;fillColor=#ffe6cc;strokeColor=#d79b00;" parent="1" vertex="1">
          <mxGeometry x="490" y="430" width="100" height="30" as="geometry" />
        </mxCell>
        <mxCell id="9vGy-V_rpe-NXs04i1K--19" value="" style="edgeStyle=orthogonalEdgeStyle;rounded=0;orthogonalLoop=1;jettySize=auto;html=1;strokeWidth=2;" parent="1" source="9vGy-V_rpe-NXs04i1K--16" target="9vGy-V_rpe-NXs04i1K--18" edge="1">
          <mxGeometry relative="1" as="geometry" />
        </mxCell>
        <mxCell id="9vGy-V_rpe-NXs04i1K--16" value="构建应用镜像" style="rounded=1;whiteSpace=wrap;html=1;strokeWidth=2;arcSize=3;fillColor=#ffe6cc;strokeColor=#d79b00;" parent="1" vertex="1">
          <mxGeometry x="490" y="490" width="100" height="30" as="geometry" />
        </mxCell>
        <mxCell id="9vGy-V_rpe-NXs04i1K--18" value="将版本镜像推送到制品库" style="rounded=1;whiteSpace=wrap;html=1;strokeWidth=2;arcSize=3;fillColor=#ffe6cc;strokeColor=#d79b00;" parent="1" vertex="1">
          <mxGeometry x="490" y="554.5" width="100" height="30" as="geometry" />
        </mxCell>
        <mxCell id="9vGy-V_rpe-NXs04i1K--20" value="发送成功通知" style="rounded=1;whiteSpace=wrap;html=1;strokeWidth=2;arcSize=3;fillColor=#fff2cc;strokeColor=#d6b656;" parent="1" vertex="1">
          <mxGeometry x="690" y="370" width="100" height="30" as="geometry" />
        </mxCell>
      </root>
    </mxGraphModel>
  </diagram>
  <diagram id="KWaA5AyTvJw7SW1tE28f" name="流水线触发">
    <mxGraphModel dx="1974" dy="638" grid="1" gridSize="10" guides="1" tooltips="1" connect="1" arrows="1" fold="1" page="1" pageScale="1" pageWidth="827" pageHeight="1169" math="0" shadow="0">
      <root>
        <mxCell id="0" />
        <mxCell id="1" parent="0" />
        <mxCell id="131CyCgmiPX2d_cFCsZj-13" value="" style="rounded=1;whiteSpace=wrap;html=1;strokeWidth=2;arcSize=3;fillColor=none;strokeColor=#9673a6;" vertex="1" parent="1">
          <mxGeometry x="-440" y="210" width="460" height="180" as="geometry" />
        </mxCell>
        <mxCell id="N2lkmTojfyGKrSBqqh6R-22" value="" style="rounded=1;whiteSpace=wrap;html=1;strokeWidth=2;arcSize=1;fillColor=none;strokeColor=#b85450;" vertex="1" parent="1">
          <mxGeometry x="80" y="270" width="730" height="360" as="geometry" />
        </mxCell>
        <mxCell id="N2lkmTojfyGKrSBqqh6R-1" style="edgeStyle=orthogonalEdgeStyle;rounded=0;orthogonalLoop=1;jettySize=auto;html=1;entryX=0;entryY=0.5;entryDx=0;entryDy=0;strokeWidth=2;" edge="1" parent="1" source="N2lkmTojfyGKrSBqqh6R-3" target="N2lkmTojfyGKrSBqqh6R-6">
          <mxGeometry relative="1" as="geometry" />
        </mxCell>
        <mxCell id="N2lkmTojfyGKrSBqqh6R-2" value="" style="edgeStyle=orthogonalEdgeStyle;rounded=0;orthogonalLoop=1;jettySize=auto;html=1;strokeWidth=2;" edge="1" parent="1" source="N2lkmTojfyGKrSBqqh6R-3" target="N2lkmTojfyGKrSBqqh6R-12">
          <mxGeometry relative="1" as="geometry" />
        </mxCell>
        <mxCell id="N2lkmTojfyGKrSBqqh6R-3" value="前置" style="rounded=1;whiteSpace=wrap;html=1;strokeWidth=2;arcSize=3;fillColor=#dae8fc;strokeColor=#6c8ebf;" vertex="1" parent="1">
          <mxGeometry x="90" y="310" width="100" height="30" as="geometry" />
        </mxCell>
        <mxCell id="N2lkmTojfyGKrSBqqh6R-4" value="" style="edgeStyle=orthogonalEdgeStyle;rounded=0;orthogonalLoop=1;jettySize=auto;html=1;strokeWidth=2;" edge="1" parent="1" source="N2lkmTojfyGKrSBqqh6R-6" target="N2lkmTojfyGKrSBqqh6R-9">
          <mxGeometry relative="1" as="geometry" />
        </mxCell>
        <mxCell id="N2lkmTojfyGKrSBqqh6R-5" value="" style="edgeStyle=orthogonalEdgeStyle;rounded=0;orthogonalLoop=1;jettySize=auto;html=1;strokeWidth=2;" edge="1" parent="1" source="N2lkmTojfyGKrSBqqh6R-6" target="N2lkmTojfyGKrSBqqh6R-13">
          <mxGeometry relative="1" as="geometry" />
        </mxCell>
        <mxCell id="N2lkmTojfyGKrSBqqh6R-6" value="依赖下载" style="rounded=1;whiteSpace=wrap;html=1;strokeWidth=2;arcSize=3;fillColor=#d5e8d4;strokeColor=#82b366;" vertex="1" parent="1">
          <mxGeometry x="290" y="310" width="100" height="30" as="geometry" />
        </mxCell>
        <mxCell id="N2lkmTojfyGKrSBqqh6R-7" value="" style="edgeStyle=orthogonalEdgeStyle;rounded=0;orthogonalLoop=1;jettySize=auto;html=1;strokeWidth=2;" edge="1" parent="1" source="N2lkmTojfyGKrSBqqh6R-9" target="N2lkmTojfyGKrSBqqh6R-11">
          <mxGeometry relative="1" as="geometry" />
        </mxCell>
        <mxCell id="N2lkmTojfyGKrSBqqh6R-8" value="" style="edgeStyle=orthogonalEdgeStyle;rounded=0;orthogonalLoop=1;jettySize=auto;html=1;strokeWidth=2;" edge="1" parent="1" source="N2lkmTojfyGKrSBqqh6R-9" target="N2lkmTojfyGKrSBqqh6R-15">
          <mxGeometry relative="1" as="geometry" />
        </mxCell>
        <mxCell id="N2lkmTojfyGKrSBqqh6R-9" value="构建" style="rounded=1;whiteSpace=wrap;html=1;strokeWidth=2;arcSize=3;fillColor=#ffe6cc;strokeColor=#d79b00;" vertex="1" parent="1">
          <mxGeometry x="490" y="310" width="100" height="30" as="geometry" />
        </mxCell>
        <mxCell id="N2lkmTojfyGKrSBqqh6R-10" value="" style="edgeStyle=orthogonalEdgeStyle;rounded=0;orthogonalLoop=1;jettySize=auto;html=1;strokeWidth=2;" edge="1" parent="1" source="N2lkmTojfyGKrSBqqh6R-11" target="N2lkmTojfyGKrSBqqh6R-21">
          <mxGeometry relative="1" as="geometry" />
        </mxCell>
        <mxCell id="N2lkmTojfyGKrSBqqh6R-11" value="通知" style="rounded=1;whiteSpace=wrap;html=1;strokeWidth=2;arcSize=3;fillColor=#fff2cc;strokeColor=#d6b656;" vertex="1" parent="1">
          <mxGeometry x="690" y="310" width="100" height="30" as="geometry" />
        </mxCell>
        <mxCell id="N2lkmTojfyGKrSBqqh6R-12" value="生成版本号" style="rounded=1;whiteSpace=wrap;html=1;strokeWidth=2;arcSize=3;fillColor=#dae8fc;strokeColor=#6c8ebf;" vertex="1" parent="1">
          <mxGeometry x="90" y="370" width="100" height="30" as="geometry" />
        </mxCell>
        <mxCell id="N2lkmTojfyGKrSBqqh6R-13" value="从配置中心下载应用配置" style="rounded=1;whiteSpace=wrap;html=1;strokeWidth=2;arcSize=3;fillColor=#d5e8d4;strokeColor=#82b366;" vertex="1" parent="1">
          <mxGeometry x="290" y="370" width="100" height="30" as="geometry" />
        </mxCell>
        <mxCell id="N2lkmTojfyGKrSBqqh6R-14" value="" style="edgeStyle=orthogonalEdgeStyle;rounded=0;orthogonalLoop=1;jettySize=auto;html=1;strokeWidth=2;" edge="1" parent="1" source="N2lkmTojfyGKrSBqqh6R-15" target="N2lkmTojfyGKrSBqqh6R-17">
          <mxGeometry relative="1" as="geometry" />
        </mxCell>
        <mxCell id="N2lkmTojfyGKrSBqqh6R-15" value="生成镜像名称" style="rounded=1;whiteSpace=wrap;html=1;strokeWidth=2;arcSize=3;fillColor=#ffe6cc;strokeColor=#d79b00;" vertex="1" parent="1">
          <mxGeometry x="490" y="370" width="100" height="30" as="geometry" />
        </mxCell>
        <mxCell id="N2lkmTojfyGKrSBqqh6R-16" value="" style="edgeStyle=orthogonalEdgeStyle;rounded=0;orthogonalLoop=1;jettySize=auto;html=1;strokeWidth=2;" edge="1" parent="1" source="N2lkmTojfyGKrSBqqh6R-17" target="N2lkmTojfyGKrSBqqh6R-19">
          <mxGeometry relative="1" as="geometry" />
        </mxCell>
        <mxCell id="N2lkmTojfyGKrSBqqh6R-17" value="登录 docker 仓库" style="rounded=1;whiteSpace=wrap;html=1;strokeWidth=2;arcSize=3;fillColor=#ffe6cc;strokeColor=#d79b00;" vertex="1" parent="1">
          <mxGeometry x="490" y="430" width="100" height="30" as="geometry" />
        </mxCell>
        <mxCell id="N2lkmTojfyGKrSBqqh6R-18" value="" style="edgeStyle=orthogonalEdgeStyle;rounded=0;orthogonalLoop=1;jettySize=auto;html=1;strokeWidth=2;" edge="1" parent="1" source="N2lkmTojfyGKrSBqqh6R-19" target="N2lkmTojfyGKrSBqqh6R-20">
          <mxGeometry relative="1" as="geometry" />
        </mxCell>
        <mxCell id="N2lkmTojfyGKrSBqqh6R-19" value="构建应用镜像" style="rounded=1;whiteSpace=wrap;html=1;strokeWidth=2;arcSize=3;fillColor=#ffe6cc;strokeColor=#d79b00;" vertex="1" parent="1">
          <mxGeometry x="490" y="490" width="100" height="30" as="geometry" />
        </mxCell>
        <mxCell id="N2lkmTojfyGKrSBqqh6R-20" value="将版本镜像推送到制品库" style="rounded=1;whiteSpace=wrap;html=1;strokeWidth=2;arcSize=3;fillColor=#ffe6cc;strokeColor=#d79b00;" vertex="1" parent="1">
          <mxGeometry x="490" y="554.5" width="100" height="30" as="geometry" />
        </mxCell>
        <mxCell id="N2lkmTojfyGKrSBqqh6R-21" value="发送成功通知" style="rounded=1;whiteSpace=wrap;html=1;strokeWidth=2;arcSize=3;fillColor=#fff2cc;strokeColor=#d6b656;" vertex="1" parent="1">
          <mxGeometry x="690" y="370" width="100" height="30" as="geometry" />
        </mxCell>
        <mxCell id="N2lkmTojfyGKrSBqqh6R-26" style="edgeStyle=orthogonalEdgeStyle;rounded=0;orthogonalLoop=1;jettySize=auto;html=1;endArrow=none;endFill=0;strokeWidth=2;" edge="1" parent="1" source="N2lkmTojfyGKrSBqqh6R-23">
          <mxGeometry relative="1" as="geometry">
            <mxPoint x="-20" y="298" as="targetPoint" />
          </mxGeometry>
        </mxCell>
        <mxCell id="N2lkmTojfyGKrSBqqh6R-23" value="M" style="ellipse;whiteSpace=wrap;html=1;aspect=fixed;strokeWidth=2;" vertex="1" parent="1">
          <mxGeometry x="-420" y="285" width="25" height="25" as="geometry" />
        </mxCell>
        <mxCell id="N2lkmTojfyGKrSBqqh6R-27" value="" style="endArrow=none;html=1;rounded=0;strokeWidth=2;" edge="1" parent="1">
          <mxGeometry width="50" height="50" relative="1" as="geometry">
            <mxPoint x="-360" y="298" as="sourcePoint" />
            <mxPoint x="-310" y="248" as="targetPoint" />
          </mxGeometry>
        </mxCell>
        <mxCell id="131CyCgmiPX2d_cFCsZj-2" style="edgeStyle=orthogonalEdgeStyle;rounded=0;orthogonalLoop=1;jettySize=auto;html=1;endArrow=none;endFill=0;strokeWidth=2;" edge="1" parent="1" source="131CyCgmiPX2d_cFCsZj-1">
          <mxGeometry relative="1" as="geometry">
            <mxPoint x="-310" y="248" as="targetPoint" />
          </mxGeometry>
        </mxCell>
        <mxCell id="131CyCgmiPX2d_cFCsZj-3" style="edgeStyle=orthogonalEdgeStyle;rounded=0;orthogonalLoop=1;jettySize=auto;html=1;endArrow=none;endFill=0;strokeWidth=2;" edge="1" parent="1" source="131CyCgmiPX2d_cFCsZj-1">
          <mxGeometry relative="1" as="geometry">
            <mxPoint x="-90" y="248" as="targetPoint" />
          </mxGeometry>
        </mxCell>
        <mxCell id="131CyCgmiPX2d_cFCsZj-1" value="特性分支" style="rounded=1;whiteSpace=wrap;html=1;strokeWidth=2;arcSize=3;fillColor=#e1d5e7;strokeColor=#9673a6;" vertex="1" parent="1">
          <mxGeometry x="-250" y="233" width="100" height="30" as="geometry" />
        </mxCell>
        <mxCell id="131CyCgmiPX2d_cFCsZj-4" value="" style="endArrow=none;html=1;rounded=0;strokeWidth=2;startSize=6;endSize=4;" edge="1" parent="1">
          <mxGeometry width="50" height="50" relative="1" as="geometry">
            <mxPoint x="-91" y="247" as="sourcePoint" />
            <mxPoint x="-41" y="297" as="targetPoint" />
          </mxGeometry>
        </mxCell>
        <mxCell id="131CyCgmiPX2d_cFCsZj-5" value="合并" style="edgeLabel;html=1;align=center;verticalAlign=middle;resizable=0;points=[];" vertex="1" connectable="0" parent="131CyCgmiPX2d_cFCsZj-4">
          <mxGeometry x="0.0013" y="1" relative="1" as="geometry">
            <mxPoint as="offset" />
          </mxGeometry>
        </mxCell>
        <mxCell id="131CyCgmiPX2d_cFCsZj-8" style="edgeStyle=orthogonalEdgeStyle;rounded=0;orthogonalLoop=1;jettySize=auto;html=1;strokeWidth=2;endArrow=none;endFill=0;" edge="1" parent="1" source="131CyCgmiPX2d_cFCsZj-6">
          <mxGeometry relative="1" as="geometry">
            <mxPoint x="-36" y="300" as="targetPoint" />
          </mxGeometry>
        </mxCell>
        <mxCell id="131CyCgmiPX2d_cFCsZj-9" style="edgeStyle=orthogonalEdgeStyle;rounded=0;orthogonalLoop=1;jettySize=auto;html=1;entryX=0;entryY=0.5;entryDx=0;entryDy=0;exitX=0.5;exitY=1;exitDx=0;exitDy=0;strokeWidth=2;" edge="1" parent="1" source="131CyCgmiPX2d_cFCsZj-6" target="N2lkmTojfyGKrSBqqh6R-22">
          <mxGeometry relative="1" as="geometry" />
        </mxCell>
        <mxCell id="131CyCgmiPX2d_cFCsZj-10" value="触发CI" style="edgeLabel;html=1;align=center;verticalAlign=middle;resizable=0;points=[];" vertex="1" connectable="0" parent="131CyCgmiPX2d_cFCsZj-9">
          <mxGeometry x="-0.6369" relative="1" as="geometry">
            <mxPoint as="offset" />
          </mxGeometry>
        </mxCell>
        <mxCell id="131CyCgmiPX2d_cFCsZj-6" value="创建 tag" style="rounded=1;whiteSpace=wrap;html=1;strokeWidth=2;arcSize=3;fillColor=#dae8fc;strokeColor=#6c8ebf;" vertex="1" parent="1">
          <mxGeometry x="-86" y="350" width="100" height="30" as="geometry" />
        </mxCell>
        <mxCell id="131CyCgmiPX2d_cFCsZj-11" value="CI 流水线" style="text;html=1;strokeColor=none;fillColor=none;align=center;verticalAlign=middle;whiteSpace=wrap;rounded=0;" vertex="1" parent="1">
          <mxGeometry x="415" y="600" width="60" height="30" as="geometry" />
        </mxCell>
        <mxCell id="131CyCgmiPX2d_cFCsZj-14" value="Git 仓库" style="text;html=1;strokeColor=none;fillColor=none;align=center;verticalAlign=middle;whiteSpace=wrap;rounded=0;" vertex="1" parent="1">
          <mxGeometry x="-240" y="360" width="60" height="30" as="geometry" />
        </mxCell>
      </root>
    </mxGraphModel>
  </diagram>
</mxfile>
